<?xml version="1.0" encoding="utf-8" ?>
<svg xmlns="http://www.w3.org/2000/svg" xmlns:xlink="http://www.w3.org/1999/xlink" width="512" height="512">
	<path fill="#141130" d="M33.1496 364.038C30.344 364.837 26.8817 365.162 24.1719 363.862C13.9756 358.972 3.35626 298.936 2.22279 282.988C1.84887 277.726 2.0035 272.389 2.00147 267.116L2.08606 252.269C2.26043 248.964 2.75491 245.664 3.11285 242.375C8.45002 193.331 26.0994 147.109 57.1296 108.305C62.347 101.78 68.1595 95.8878 74.0719 90.0044L91.8066 73.3066C134.789 36.3232 191.393 14.9812 248.107 14.5379C251.457 14.5117 256.859 13.8028 259.85 15.2939L260.25 15.5007C261.753 16.2505 263.097 17.4555 263.957 18.9151L264.125 19.2118C264.777 20.3375 265.193 21.4991 265.422 22.7851L265.643 26.0237C262.649 33.4113 260.038 34.7463 252.79 34.7466L241.832 34.8152C215.014 36.0023 189.505 41.8276 164.69 52.0273C85.883 84.419 33.0378 155.726 23.4335 240.625C19.5441 275.007 22.5527 309.725 35.3137 342.168L38.2421 348.803C41.123 355.109 39.1811 360.135 33.1496 364.038Z"/>
	<path fill="#FFE801" d="M289.742 27.3559C290.591 13.6164 300.27 16.0394 309.253 18.1771L326.809 23.0042C383.177 40.8943 434.552 77.1297 467.311 126.77C489.871 160.955 505.281 201.988 508.92 242.875L509.863 251.135C510.483 260.868 510.552 277.747 509.64 287.232C504.771 337.891 483.288 398.145 447.129 435.449C446.296 436.309 441.667 440.175 442.156 440.936L444.517 444.875C449.361 453.499 453.635 462.319 456.875 471.68C459.244 478.525 462.532 487.227 455.77 492.767C451.968 495.882 447.313 494.435 442.833 494.368L272.245 494.42C269.855 494.426 267.326 494.712 264.956 494.531C260.052 494.155 256.723 486.321 258.394 481.952L257.959 482C256.807 482.147 255.684 482.687 254.554 482.979C249.602 484.255 240.857 485.02 235.935 483.296C237.209 491.416 230.971 494.526 224.144 494.445L59.9755 494.423C38.1241 493.924 64.4064 445.761 68.716 438.763C71.1704 434.777 74.2396 431.298 76.8469 427.44C72.7984 416.34 59.3797 396.22 50.2745 387.574C47.5209 384.96 43.1916 384.275 40.9526 381.256C39.3401 379.081 38.3917 376.339 37.3411 373.86L33.1496 364.038C39.1811 360.135 41.123 355.109 38.2421 348.803L35.3137 342.168C22.5527 309.725 19.5441 275.007 23.4335 240.625C33.0378 155.726 85.883 84.419 164.69 52.0273C189.505 41.8276 215.014 36.0023 241.832 34.8152L252.79 34.7466C260.038 34.7463 262.649 33.4113 265.643 26.0237C274.021 25.1172 281.554 25.8524 289.742 27.3559Z"/>
	<path fill="white" d="M333.191 111.445L335.17 111.171C335.808 111.148 336.634 111.617 337.206 111.876C345.411 115.595 346.103 119.897 351.234 124.575C349.305 125.774 347.505 127.033 345.799 128.537C345.196 127.881 345.185 127.492 345.01 126.625L344.908 126.088C343.893 121.582 343.076 122.187 339.875 120.033C336.954 118.067 334.602 115.465 331.598 113.55L333.191 111.445Z"/>
	<path fill="#141130" d="M148.068 186.473C147.729 185.74 146.647 185.259 145.969 184.835C137.615 179.614 139.191 180.167 139.595 170.872C140.608 147.593 145.426 129.094 166.773 115.376C171.848 112.114 177.409 111.085 183.133 109.558C197.422 105.747 209.112 96.6803 221.084 88.3701C239.276 75.7432 250.423 71.5846 273.668 71.8731C285.877 72.0246 297.947 73.2137 308.578 79.8129C312.282 82.1117 334.366 98.9232 335.263 103.22L335.314 103.5C335.575 104.857 335.497 106.546 334.963 107.84L333.191 111.445L331.598 113.55C328.284 115.641 322.299 117.104 318.487 116.125C316.202 115.538 315.41 112.666 314.333 110.855C304.097 93.6505 278.651 89.1573 260.455 91.476C237.304 94.4261 221.206 112.428 201.313 122.719C192.462 127.297 181.526 127.405 173.722 133.798C161.212 144.046 158.703 161.794 158.763 176.95L158.782 181.077C158.797 184.046 150.458 185.095 148.068 186.473Z"/>
	<path fill="#CB83FF" d="M148.206 186.473C150.458 185.095 158.797 184.046 158.782 181.077L158.763 176.95C158.703 161.794 161.212 144.046 173.722 133.798C181.526 127.405 192.462 127.297 201.313 122.719C221.206 112.428 237.304 94.4261 260.455 91.476C278.651 89.1573 304.097 93.6505 314.333 110.855C315.41 112.666 316.202 115.538 318.487 116.125C322.299 117.104 328.284 115.641 331.598 113.55C334.602 115.465 336.954 118.067 339.875 120.033C343.076 122.187 343.893 121.582 344.908 126.088L345.01 126.625C345.185 127.492 345.196 127.881 345.799 128.537C342.58 133.02 346.743 138.05 349.001 142C357.911 157.586 362.938 205.732 353.069 219.408C349.853 223.864 341.856 217.767 340.505 214C338.724 209.034 340.009 203.188 334.5 200.24C330.437 198.065 324.189 198.632 321.067 202.161L320.919 202.343C318.005 201.986 314.937 202.254 312 202.269L295.144 202.251C266.927 201.84 237.535 195.54 210.851 186.62C208.539 185.847 205.228 184.124 202.823 184.171C191.75 164.694 179.768 190.44 176.033 200.5C173.084 208.442 171.438 222.739 160.125 222.53C159.446 221.844 159.509 220.821 159.511 219.882L159.785 210.438C159.834 202.322 154.626 200.98 148.489 198.498L148.206 186.473Z"/>
	<path fill="#141130" d="M289.742 27.3559C290.591 13.6164 300.27 16.0394 309.253 18.1771L326.809 23.0042C383.177 40.8943 434.552 77.1297 467.311 126.77C489.871 160.955 505.281 201.988 508.92 242.875L509.863 251.135C510.483 260.868 510.552 277.747 509.64 287.232C504.771 337.891 483.288 398.145 447.129 435.449C446.296 436.309 441.667 440.175 442.156 440.936L444.517 444.875C449.361 453.499 453.635 462.319 456.875 471.68C459.244 478.525 462.532 487.227 455.77 492.767C451.968 495.882 447.313 494.435 442.833 494.368L272.245 494.42C269.855 494.426 267.326 494.712 264.956 494.531C260.052 494.155 256.723 486.321 258.394 481.952L257.959 482C256.807 482.147 255.684 482.687 254.554 482.979C249.602 484.255 240.857 485.02 235.935 483.296C237.209 491.416 230.971 494.526 224.144 494.445L59.9755 494.423C38.1241 493.924 64.4064 445.761 68.716 438.763C71.1704 434.777 74.2396 431.298 76.8469 427.44C96.8125 405.13 114.657 401.419 141.344 395.16C151.929 392.676 186.056 383.589 189.709 371.246C189.965 370.382 182.544 363.071 181.537 362.021C166.757 346.602 155.391 329.237 149.109 308.61L145.763 294.375C145.215 291.763 143.65 291.269 141.728 289.541C129.984 278.981 119.679 241.252 133.806 228.378C137.999 224.557 139.751 224.338 139.749 218.49L139.683 210.659C139.47 202.505 140.511 201.779 148.489 198.498C154.626 200.98 159.834 202.322 159.785 210.438L159.511 219.882C159.509 220.821 159.446 221.844 160.125 222.53C171.438 222.739 173.084 208.442 176.033 200.5C179.768 190.44 191.75 164.694 202.823 184.171C205.228 184.124 208.539 185.847 210.851 186.62C237.535 195.54 266.927 201.84 295.144 202.251L312 202.269C314.937 202.254 318.005 201.986 320.919 202.318L321.067 202.161C324.189 198.632 330.437 198.065 334.5 200.24C340.009 203.188 338.724 209.034 340.505 214C341.856 217.767 349.853 223.864 353.069 219.408C362.938 205.732 357.911 157.586 349.001 142C346.743 138.05 342.58 133.02 345.799 128.537C347.505 127.033 349.305 125.774 351.234 124.575C352.939 124.244 356.287 124.973 358.089 125.322C373.381 128.282 378.024 180.86 377.175 194.606C376.568 204.428 374.322 214.533 372.323 224.158L372.535 224.301C387.809 235.309 383.691 258.696 378.023 273.75C375.755 279.773 373.247 284.723 368.352 288.952L364.697 292.002C363.017 293.449 363.204 294.383 362.844 296.531L361.384 305.188C357.177 326.508 345.946 344.679 330.578 359.972L324.144 365.911C322.418 367.403 320.551 368.797 319.151 370.612C322.942 379.839 331.626 383.79 340.446 387.087C373.839 399.567 404.106 397.037 430.136 425.589L447.57 403.549C477.625 361.908 492.511 305.893 489.839 255.099C487.052 202.122 465.156 150.319 429.799 110.908C399.466 77.0963 358.411 52.562 314.763 40.124L305.182 37.572C297.293 35.7276 292.707 35.9825 289.742 27.3559Z"/>
	<path fill="#CB83FF" d="M235.935 483.296C235.63 483.024 235.257 481.935 235.022 481.5C230.263 472.689 219.969 475.081 211.602 475.078L73.0419 475.037C73.6034 474.227 73.6855 473.234 73.9935 472.314L75.7472 467.75C92.756 425.862 114.057 421.825 152.258 412.465C166.453 408.987 201.393 397.026 209.493 383.453L209.721 383.067C211.478 384.15 212.991 385.79 214.738 386.972C234.566 400.395 270.026 400.597 291.789 389.893C295.251 388.19 297.878 385.545 301.14 383.562C322.59 403.987 341.673 409.035 369.76 415.486C379.287 417.674 388.836 419.707 397.423 424.618C417.898 436.327 428.881 453.924 437.836 474.689L437.926 474.893C431.801 475.199 425.841 474.749 419.75 474.587L396.388 475.003L280.353 475.44C270.318 475.429 265.223 473.223 258.394 481.952L257.959 482C256.807 482.147 255.684 482.687 254.554 482.979C249.602 484.255 240.857 485.02 235.935 483.296Z"/>
	<path fill="#FF84C2" d="M202.823 184.171C205.228 184.124 208.539 185.847 210.851 186.62C237.535 195.54 266.927 201.84 295.144 202.251L312 202.269C314.937 202.254 318.005 201.986 320.919 202.318C316.709 210.232 323.111 225.484 329.756 231.32C332.043 233.329 334.668 234.881 336.74 237.136C347.206 248.524 344.361 253.555 360.125 243.726C366.78 239.576 362.403 268.076 354.405 274.603C351.852 276.687 348.506 276.303 345.441 276.054C339.058 280.19 341.492 289.229 342.418 295.401C342.845 298.25 342.026 301.375 341.331 304.122C336.029 325.091 323.469 340.659 307.674 354.801C280.075 379.513 252.316 389.35 219.025 367.96L206.297 359.234C187.596 344.991 169.501 320.26 165.931 297.144C165.292 293.001 165.628 288.462 165.643 284.265C165.66 279.07 164.708 272.485 157.092 274.39L156.75 274.482C155.36 274.846 154.5 276.002 153.368 276.303L147.161 255.6C142.004 233.833 155.892 250.7 162.955 248.677C166.146 247.763 167.962 243.451 170.214 241.253C171.781 239.724 173.716 238.583 175.453 237.26C186.039 229.199 188.164 218.089 193.531 206.75L198.652 196.917C200.695 193.266 203.97 188.941 202.911 184.523L202.823 184.171Z"/>
	<path fill="#141130" d="M196.676 240.358L225.344 240.438C236.026 240.98 240.171 250.298 232.667 256.164C228.655 259.299 220.242 257.316 215.37 256.787C208.91 256.233 201.726 255.75 195.391 257.206C191.421 258.119 187.686 259.705 183.626 260.196C179.658 258.369 177.41 253.308 178.146 249.104L178.213 248.75C179.563 241.373 190.028 240.791 195.928 240.406L196.676 240.358Z"/>
	<path fill="#141130" d="M283.061 240.354L302.787 240.231C310.41 240.223 323.887 238.981 328.808 246.31C331.773 250.725 328.982 262.396 318.688 259.084C316.177 258.165 313.609 257.138 310.949 256.752L310.5 256.69C305.099 255.864 298.346 256.309 292.942 256.842L283.515 257.456C282.024 257.49 280.435 257.616 278.965 257.35L278.625 257.284C268.466 255.499 267.37 241.475 283.061 240.354Z"/>
</svg>
