<?xml version="1.0" encoding="utf-8" ?>
<svg xmlns="http://www.w3.org/2000/svg" xmlns:xlink="http://www.w3.org/1999/xlink" width="512" height="512">
	<path fill="#222948" d="M420.638 76.6371C430.742 72.2276 435.964 78.0133 439.745 87.375C439.639 87.9639 439.451 88.3551 439.159 88.875L440.5 88.7138C448.524 92.8504 462.259 107.744 467.458 114.752C473.457 122.839 478.7 132.773 482.757 141.996L488.128 155.403C499.332 182.384 507.921 208.461 509.863 238.087C510.454 247.089 510.48 261.686 509.798 270.724L506.091 298.625C502.175 323.212 493.407 347.771 482.406 369.975L475.48 383.479C460.681 409.64 441.38 432.86 418.25 452.022L405.601 461.999C397.145 468.037 388.326 473.88 379.25 478.947L365.866 485.578C335.742 499.778 303.312 508.115 269.97 509.828L254.696 509.948C243.148 509.949 231.609 509.937 220.18 507.992L198.75 503.972C170.211 497.178 142.054 484.827 117.481 468.996L107.434 462.125C103.909 459.453 102.098 458.292 102.679 453.625L102.715 453.31C103.115 450.134 105.325 446.866 108.348 445.633C118.2 444.908 127.975 452.782 135.208 458.956C137.982 446.938 147.594 436.199 157.134 450.556C157.355 450.961 157.572 451.537 157.933 451.821L158.066 452.541L152.176 466.754C181.821 479.974 213.053 490.597 245.797 491.417C246.245 488.04 244.904 484.456 245.399 480.931C246.081 476.076 251.54 472.961 256.153 473.637L256.5 473.694C258.902 474.056 261.02 475.061 262.748 476.791L263.074 477.125C265.289 479.365 264.972 482.338 265.003 485.249L265.053 492.065L291.258 488.949C307.884 486.246 324.612 481.722 340.407 475.845L360.216 467.562L358.577 464.677C356.706 461.054 354.019 454.837 355.484 450.753C357.244 445.851 363.995 442.751 368.808 444.841C373.935 447.067 374.608 453.69 376.535 458.3C386.533 452.322 408.38 438.339 415.154 428.608C412.831 426.187 406.274 418.041 406.392 414.665C406.541 410.357 411.985 406.443 416.016 406.643C421.545 406.917 425.7 412.045 429.21 415.795C438.798 405.935 453.646 386.303 458.727 373.725L449.353 368.275C444.841 365.098 441.408 360.99 445.226 355.762L445.457 355.447C446.877 353.986 448.364 352.938 450.323 352.31L450.75 352.178C456.761 350.263 462.788 354.219 466.953 358.206C480.774 329.708 489.74 298.308 490.595 266.546C486.615 266.6 483.152 265.706 479.69 263.736C465.335 255.566 478.712 246.468 490.964 246.425L489.086 225.468C487.268 210.997 483.654 196.098 478.756 182.361L472.536 166.75C470.266 161.586 467.854 156.559 466.035 151.207C458.098 155.194 452.859 158.398 446.831 149.931C439.97 140.292 449.94 138.421 457.742 133.532C456.329 131.382 454.6 129.382 453.008 127.362L440.541 112.32C436.491 107.513 432.731 102.345 428.328 97.8585L423.99 102.025C415.722 108.621 404.32 103.106 405.861 95.8223C407.188 89.5506 413.971 86.3035 417.666 81.625C418.844 80.1336 419.066 77.6477 420.638 76.6371Z"/>
	<path fill="#CB83FF" d="M35.1577 153.643L34.1435 153.169C30.704 151.326 28.3669 148.39 27.2464 144.679C28.2719 141.185 42.0001 118.107 44.606 114.126C82.9601 55.5367 141.83 18.3055 210.441 5.56716C227.668 2.36895 237.074 2.13249 254.423 2.10591L269.165 2.14453C272.949 2.18395 277.035 2.1852 280.766 2.82283L305.331 6.38952C334.061 12.0606 362.182 23.5928 387.354 38.3465L396.909 43.8677C399.879 45.5155 405.044 47.0268 405.272 51.0645C405.501 55.1271 404.391 57.9565 401.703 60.9725C408.288 63.5746 416.141 71.3886 420.638 76.6371C419.066 77.6477 418.844 80.1336 417.666 81.625C413.971 86.3035 407.188 89.5506 405.861 95.8223C404.32 103.106 415.722 108.621 423.99 102.025L428.328 97.8585C432.731 102.345 436.491 107.513 440.541 112.32L453.008 127.362C454.6 129.382 456.329 131.382 457.742 133.532C449.94 138.421 439.97 140.292 446.831 149.931C452.859 158.398 458.098 155.194 466.035 151.207C467.854 156.559 470.266 161.586 472.536 166.75L478.756 182.361C483.654 196.098 487.268 210.997 489.086 225.468L490.964 246.425C478.712 246.468 465.335 255.566 479.69 263.736C483.152 265.706 486.615 266.6 490.595 266.546C489.74 298.308 480.774 329.708 466.953 358.206C462.788 354.219 456.761 350.263 450.75 352.178L450.323 352.31C448.364 352.938 446.877 353.986 445.457 355.447C442.918 345.561 435.58 346.775 433.548 343.422C440.459 339.676 445.474 318.393 447.25 311.38C456.513 274.807 456.926 231.343 444.125 195.273C430.658 157.325 411.82 130.524 381.083 105.025C357.478 85.4419 335.596 73.5857 305.25 65.9042C203.97 40.2684 101.318 96.1201 67.8796 193.898C39.9936 275.441 71.0411 368.457 140.578 418.614L165.854 434.835C166.24 435.057 167.317 435.532 167.571 435.841C168.826 437.451 170.907 438.032 172.689 439.054L175.459 440.392C176.462 440.815 177.35 441.429 178.388 441.772L182.626 443.562C183.57 444.037 184.841 444.233 185.603 444.93L185.636 445.157C185.805 445.805 186.45 446.445 186.811 447.015L186.617 447.149C185.302 448.074 182.963 450.988 182.502 452.5L182.651 453.388C181.752 454.701 174.908 453.981 173.168 453.775L166.339 453.795C164.501 453.956 163.385 453.144 161.835 452.457L161.483 452.287C161.075 452.098 160.201 451.763 159.418 451.539L158 451.375C157.703 450.84 157.687 450.812 157.134 450.556C147.594 436.199 137.982 446.938 135.208 458.956C127.975 452.782 118.2 444.908 108.348 445.633C103.118 441.652 98.5703 437.975 94.1019 433.077C92.3194 431.707 92.1144 431.693 90.0701 432.1C82.3409 433.637 77.999 425.429 79.0065 419.676C75.3879 420.331 76.0475 420.514 74.4978 417.75L68.8664 408.67C68.3104 407.792 67.725 406.217 66.7925 405.758C64.4554 408.345 57.3001 411.167 54.1916 409.037C47.0477 404.142 34.7714 380.239 30.734 372.189C20.8968 352.574 12.8124 331.553 8.29288 310.025L3.30155 280.091C1.37341 264.51 1.47568 249.359 3.43309 233.718C5.11969 220.242 7.41445 206.979 11.3577 193.957L15.9817 180.099C18.331 173.755 18.3436 173.076 25.6195 172.715C25.552 168.212 32.0419 156.898 35.1577 153.643Z"/>
	<path fill="#222948" d="M79.0065 419.676C83.2862 410.978 99.1184 402.052 103.128 415.97C105.413 423.901 96.1542 426.733 94.1019 433.077C92.3194 431.707 92.1144 431.693 90.0701 432.1C82.3409 433.637 77.999 425.429 79.0065 419.676Z"/>
	<path fill="#222948" d="M25.6195 172.715C39.4471 178.766 33.722 184.794 30.8808 193.907C25.5596 210.976 21.9869 229.415 21.4519 247.28C25.6382 246.472 29.9826 246.178 33.6975 248.645C43.0851 254.879 35.0864 269.846 21.1419 264.856C20.9588 266.214 21.1998 267.758 21.2953 269.126L22.1949 278.45C23.9609 295.275 27.1314 311.873 32.5081 327.935L43.4653 356.672C47.2246 354.301 53.2148 351 57.8403 352.162C62.5276 353.34 65.8656 359.475 64.4646 364.081C63.5835 366.978 59.9258 369.003 57.375 370.243L51.9168 372.778C57.9704 384.898 66.8214 391.086 66.7896 405.758C64.4554 408.345 57.3001 411.167 54.1916 409.037C47.0477 404.142 34.7714 380.239 30.734 372.189C20.8968 352.574 12.8124 331.553 8.29288 310.025L3.30155 280.091C1.37341 264.51 1.47568 249.359 3.43309 233.718C5.11969 220.242 7.41445 206.979 11.3577 193.957L15.9817 180.099C18.331 173.755 18.3436 173.076 25.6195 172.715Z"/>
	<path fill="#222948" d="M35.1577 153.643L34.1435 153.169C30.704 151.326 28.3669 148.39 27.2464 144.679C28.2719 141.185 42.0001 118.107 44.606 114.126C82.9601 55.5367 141.83 18.3055 210.441 5.56716C227.668 2.36895 237.074 2.13249 254.423 2.10591L269.165 2.14453C272.949 2.18395 277.035 2.1852 280.766 2.82283L305.331 6.38952C334.061 12.0606 362.182 23.5928 387.354 38.3465L396.909 43.8677C399.879 45.5155 405.044 47.0268 405.272 51.0645C405.501 55.1271 404.391 57.9565 401.703 60.9725L401.267 61.2173C399.141 62.4276 397.152 64.4833 394.473 63.7206C391.383 62.8407 383.153 56.1661 378.419 53.732C376.686 58.1133 375.686 63.1578 373.125 67.1352C369.565 72.6642 358.601 68.766 356.564 63.7663C355.284 60.6235 357.693 55.0883 359.065 52.203L362.72 45.5979L335.848 34.3697C313.409 25.9969 289.066 20.9089 265.083 20.9754L265.12 28.0081C265.152 43.2215 244.986 40.0273 245.863 28.3448L246.569 20.9566C215.347 21.741 177.943 29.2391 150.315 45.0348C152.433 50.4701 156.98 58.5478 154.375 64.3902C152.111 69.4685 146.76 70.5573 142.069 68.0424C136.36 64.9816 135.855 59.6453 133.588 54.1952C125.266 57.3905 98.025 76.93 95.6399 82.1503C100.186 85.7796 105.542 89.88 106.236 96.125C107.044 103.403 96.4774 110.103 88.625 102.54C86.4979 100.491 85.5214 97.5361 83.4337 95.5359C72.1053 104.883 60.3255 122.623 53.4291 135.176C57.7147 136.398 62.3005 137.896 64.7078 141.995C67.4767 146.71 64.8204 153.487 59.75 155.289L59.4032 155.417C54.1051 157.221 49.6408 154.001 45.5641 151.249L45.2517 151.45C42.0937 153.455 38.8623 154.034 35.1577 153.643Z"/>
	<path fill="#FF84C2" d="M167.571 435.841C167.317 435.532 166.24 435.057 165.854 434.835L140.578 418.614C71.0411 368.457 39.9936 275.441 67.8796 193.898C101.318 96.1201 203.97 40.2684 305.25 65.9042C335.596 73.5857 357.478 85.4419 381.083 105.025C411.82 130.524 430.658 157.325 444.125 195.273C456.926 231.343 456.513 274.807 447.25 311.38C445.474 318.393 440.459 339.676 433.548 343.422C435.58 346.775 442.918 345.561 445.457 355.447L445.226 355.762C441.408 360.99 444.841 365.098 449.353 368.275L458.727 373.725C453.646 386.303 438.798 405.935 429.21 415.795C425.7 412.045 421.545 406.917 416.016 406.643C411.985 406.443 406.541 410.357 406.392 414.665C406.274 418.041 412.831 426.187 415.154 428.608C408.38 438.339 386.533 452.322 376.535 458.3C374.608 453.69 373.935 447.067 368.808 444.841C363.995 442.751 357.244 445.851 355.484 450.753C354.019 454.837 356.706 461.054 358.577 464.677L360.216 467.562L340.407 475.845C324.612 481.722 307.884 486.246 291.258 488.949L265.053 492.065L265.003 485.249C264.972 482.338 265.289 479.365 263.074 477.125L262.748 476.791C261.02 475.061 258.902 474.056 256.5 473.694L256.153 473.637C251.54 472.961 246.081 476.076 245.399 480.931C244.904 484.456 246.245 488.04 245.797 491.417C213.053 490.597 181.821 479.974 152.176 466.754L158.066 452.541L157.933 451.821C157.572 451.537 157.355 450.961 157.134 450.556C157.687 450.812 157.703 450.84 158 451.375L159.418 451.539C160.201 451.763 161.075 452.098 161.483 452.287L161.835 452.457C163.385 453.144 164.501 453.956 166.339 453.795L173.168 453.775C174.908 453.981 181.752 454.701 182.651 453.388L182.502 452.5C182.963 450.988 185.302 448.074 186.617 447.149L186.811 447.015C186.45 446.445 185.805 445.805 185.636 445.157L185.603 444.93C184.841 444.233 183.57 444.037 182.626 443.562L178.388 441.772C177.35 441.429 176.462 440.815 175.459 440.392L172.689 439.054C170.907 438.032 168.826 437.451 167.571 435.841ZM248.309 134.499C248.658 139.046 248.575 143.619 248.598 148.177C248.685 164.763 243.325 162.936 230.457 167.625C215.823 172.958 199.467 182.885 191.329 196.755C188.771 201.116 187.372 206.591 181.75 207.769C179.131 208.317 174.671 208.161 172.335 206.724L171.828 206.384C170.877 211.773 168.586 222.21 165.848 227.037L165.762 227.204C176.961 228.698 173.322 238.726 172.696 245.786C168.773 290.037 192.109 330.272 234.656 346.029C246.857 350.548 248.51 347.923 248.541 361.151L248.489 376.709L250.573 376.628C254.748 376.812 260.131 376.635 263.727 378.994L264.099 378.82C263.428 373.335 263.111 358.578 265.413 353.223C267.532 348.293 277.656 347.226 282.25 345.747C295.68 341.423 318.588 329.65 323.313 316.76C325.108 311.864 320.335 307.672 315.75 309.237C311.417 310.717 307.495 313.922 303.75 316.498L295.388 321.888C278.91 331.417 262.37 332.645 244 327.011C239.252 325.555 223.5 319.669 224.13 312.875C224.392 310.054 227.03 305.361 229.156 303.536L223.7 295.97C221.861 293.467 218.846 290.032 218.555 286.87C216.466 287.921 213.351 288.279 211.027 287.946L210.648 287.894C204.205 286.931 202.728 279.654 201.567 274.389C194.127 240.662 201.529 209.813 231.449 189.179C245.379 179.572 264.438 177.537 280.17 183.843C287.634 186.835 294.644 191.647 301.202 196.261C305.563 199.329 310.692 204.587 316.046 205.461C319.849 206.082 323.897 204.794 324.26 200.412C325.207 188.979 295.625 171.574 283.886 167.811C267.426 162.535 263.599 163.575 263.634 146.261C263.642 142.099 263.389 137.755 263.932 133.638L264.126 133.183C263.341 132.317 261.608 132.173 260.5 132.014L260.095 131.953C257.972 131.667 255.8 132.011 253.75 132.537L253.373 132.616C251.568 133.014 249.919 133.704 248.309 134.499ZM248.489 376.709L248.155 380.509C249.325 379.414 249.885 378.045 250.573 376.628L248.489 376.709Z"/>
	<path fill="#222948" d="M171.828 206.384C170.604 205.081 169.272 203.675 168.415 202.099C169.534 197.377 172.057 193.006 174.552 188.883C184.315 172.752 197.393 162.326 214.419 154.32L224.983 149.863C229.434 148.11 229.043 149.622 229.022 144.75C228.994 138.203 228.017 127.077 236.9 125.592C242.994 124.573 247.353 128.785 248.261 134.499C248.658 139.046 248.575 143.619 248.598 148.177C248.685 164.763 243.325 162.936 230.457 167.625C215.823 172.958 199.467 182.885 191.329 196.755C188.771 201.116 187.372 206.591 181.75 207.769C179.131 208.317 174.671 208.161 172.335 206.724L171.828 206.384Z"/>
	<path fill="#222948" d="M165.762 227.204C176.961 228.698 173.322 238.726 172.696 245.786C168.773 290.037 192.109 330.272 234.656 346.029C246.857 350.548 248.51 347.923 248.541 361.151L248.55 376.709L248.155 380.509C245.204 387.247 237.451 388.844 232.326 383.877C229.406 381.048 229.232 376.613 229.043 372.813L228.839 364.032C226.718 363.04 224.278 362.529 222.065 361.663C184.499 346.959 159.118 308.949 154.805 269.353C154.213 263.921 154.234 258.557 154.246 253.101C154.266 244.357 153.227 229.855 164.413 227.63C164.825 227.549 165.14 227.504 165.529 227.329L165.762 227.204Z"/>
	<path fill="#222948" d="M229.156 303.536C237.464 299.824 236.605 303.075 244.852 306.941C263.123 315.503 279.243 311.899 294.532 300.259C297.537 297.97 300.468 295.514 303.825 293.749C318.543 286.013 336.382 292.413 341.725 308.375C350.368 334.196 305.895 358.14 286.128 363.877C285.073 364.183 284.151 364.465 283.128 364.893L283.268 371.87C283.439 375.871 284.001 380.432 280.875 383.476C274.784 389.406 266.3 386.374 264.099 378.82C263.428 373.335 263.111 358.578 265.413 353.223C267.532 348.293 277.656 347.226 282.25 345.747C295.68 341.423 318.588 329.65 323.313 316.76C325.108 311.864 320.335 307.672 315.75 309.237C311.417 310.717 307.495 313.922 303.75 316.498L295.388 321.888C278.91 331.417 262.37 332.645 244 327.011C239.252 325.555 223.5 319.669 224.13 312.875C224.392 310.054 227.03 305.361 229.156 303.536Z"/>
	<path fill="#222948" d="M263.995 133.183L264.234 132.791C267.26 121.979 283.02 122.635 283.02 137.904L282.964 145.096C282.809 149.093 285.448 148.238 289.563 149.659C304.789 154.916 334.591 173.91 341.083 190.015C349.402 210.651 326.07 231.557 306.478 222.543C301.375 220.195 297.086 216.337 292.604 213.005C284.066 206.658 271.907 198.989 261.125 198.785C243.819 198.458 228.595 213.383 221.884 228.09C214.982 243.214 215.638 261.628 221.474 277.029C222.478 279.679 223.981 281.778 225.161 284.247L224.473 284.235C222.624 284.155 220.019 285.763 218.555 286.87C216.466 287.921 213.351 288.279 211.027 287.946L210.648 287.894C204.205 286.931 202.728 279.654 201.567 274.389C194.127 240.662 201.529 209.813 231.449 189.179C245.379 179.572 264.438 177.537 280.17 183.843C287.634 186.835 294.644 191.647 301.202 196.261C305.563 199.329 310.692 204.587 316.046 205.461C319.849 206.082 323.897 204.794 324.26 200.412C325.207 188.979 295.625 171.574 283.886 167.811C267.426 162.535 263.599 163.575 263.634 146.261C263.642 142.099 263.389 137.755 263.932 133.638L263.995 133.183Z"/>
	<path fill="#222948" d="M167.571 435.841C167.317 435.532 166.24 435.057 165.854 434.835L140.578 418.614C71.0411 368.457 39.9936 275.441 67.8796 193.898C101.318 96.1201 203.97 40.2684 305.25 65.9042C335.596 73.5857 357.478 85.4419 381.083 105.025C411.82 130.524 430.658 157.325 444.125 195.273C456.926 231.343 456.513 274.807 447.25 311.38C445.474 318.393 440.459 339.676 433.548 343.422C419.813 338.533 419.039 337.236 423.918 323.957L428.002 312.5C434.954 291.689 437.025 266.969 435.597 244.938C433.419 211.318 420.341 176.714 400.212 149.891C367.396 106.162 313.69 78.1354 258.862 77.9729C182.305 77.746 115.289 121.58 87.5931 192.625C59.0704 265.79 84.4679 352.845 146.883 400.327C183.602 428.262 231.328 440.978 277.125 435.002C319.041 429.532 361.928 408.237 389.727 376.25C397.531 367.27 401.29 355.376 411.796 372.634C412.399 373.625 413.29 374.867 413.674 375.951L413.758 376.296C409.93 381.305 405.259 385.859 400.985 390.49C374.746 418.923 347.795 436.546 309.75 447.028C300.793 449.496 291.727 451.678 282.507 452.893L267.925 454.342C233.359 457.559 198.479 452.233 167.571 435.841Z"/>
</svg>
