<?xml version="1.0" encoding="utf-8" ?>
<svg xmlns="http://www.w3.org/2000/svg" xmlns:xlink="http://www.w3.org/1999/xlink" width="512" height="512">
	<path fill="#CB83FF" d="M476.29 316.688L476.963 347.591C476.958 351.291 477.342 355.714 476.632 359.342C472.619 359.348 461.383 360.199 458.076 358.374L462.676 343.006C465.65 332.937 467.434 326.379 473.807 318.089C474.822 318.482 475.171 319.449 476.125 319.795L476.29 316.688Z"/>
	<path fill="#131629" d="M375.077 43.3735L492.313 43.5316C495.513 43.5328 499.501 43.0872 502.625 43.6994C506.22 44.4037 509.943 48.7909 509.987 52.5L509.976 383.81C509.86 387.331 507.246 390.501 503.91 391.653L503.625 391.749C500.422 392.893 496.585 392.491 493.226 392.477L479.511 392.167C471.586 390.542 468.835 380.512 474.768 374.902C478.38 371.488 486.306 372.415 490.985 372.51C491.443 371.864 491.208 363.454 491.21 361.951L491.107 63.9326L386.418 63.8908C382.045 63.8887 374.587 65.0315 370.75 62.7364L369.569 62.0352C360.321 56.0097 365.601 44.647 375.077 43.3735Z"/>
	<path fill="#131629" d="M12.1574 43.6264L123.618 43.5036C127.757 43.5042 132.197 43.1815 136.294 43.5414C146.739 44.4591 147.582 61.5063 136.296 63.6808C133.759 64.1697 130.82 63.8856 128.227 63.8864L31.9293 63.9346C28.4328 63.9404 24.7131 63.6886 21.2564 64.179L21.2566 295.125L21.0892 372.464C26.1587 373.552 34.1605 370.836 37.0595 376.741L37.2395 377.125C37.9417 378.589 37.9015 380.615 37.683 382.207C36.1922 393.066 28.2568 392.384 19.7356 392.551C11.0716 392.72 8.80881 393.363 2.29909 386.659C1.78682 384.549 2.02352 382.085 2.02332 379.908L2.0248 55.9882C2.02559 50.0812 1.63513 47.6993 7.87169 44.5452L8.22418 44.375C9.55331 43.7244 10.7115 43.6823 12.1574 43.6264Z"/>
	<path fill="#131629" d="M235.504 18.0756C232.863 6.20492 247.638 6.69977 254.702 6.72675C300.114 6.9002 347.342 30.3308 356.252 78.5266L356.448 79.82C358.257 97.1178 357.025 113.649 353.518 130.738C364.893 138.571 368.126 144.271 367.85 157.517C367.439 177.202 357.347 210.499 340.628 223.011C335.952 226.51 334.987 226.173 332.761 231.679L323.851 249.862C320.865 255.298 318.583 259.679 319.232 266.119C322.382 264.654 325.286 262.575 328.201 260.688L343.487 250.552C357.923 240.871 358.141 243.154 372.318 250.793L392.879 261.735C403.581 267.154 447.336 286.468 459.375 280.922C462.436 279.512 466.357 276.38 469.811 277.585C471.203 278.071 475.319 281.724 475.617 281.744C478.401 288.315 475.949 303.529 476.152 311.663C476.307 313.185 476.032 315.292 476.437 316.688L476.125 319.795C475.171 319.449 474.822 318.482 473.807 318.089C467.434 326.379 465.65 332.937 462.676 343.006L458.076 358.374C456.047 364.456 454.343 370.678 451.956 376.636L444.561 393.368C441.923 400.013 441.122 409.354 430.069 406.021C419.772 400.729 423.478 396.384 426.833 388.264L434.165 369.719C439.34 355.407 443.853 340.83 447.401 326.031C449.25 318.318 450.362 310.347 452.426 302.706C431.137 301.533 410.593 293.524 391.493 284.435L369.01 272.917C365.083 270.738 361.07 268.633 357.363 266.089C356.594 265.561 354.805 267.541 354.088 268.037L340.77 277.084C322.764 288.723 299.86 299.93 277.908 300.255C281.289 341.438 291.854 388.87 314.635 423.5C325.044 439.323 340.811 455.829 355.38 468.226L360.148 471.939C371.774 463.361 386.517 448.117 395.482 437.25L403.429 427.215C409.695 419.126 411.322 416.42 421.535 422.869C422.57 423.961 423.357 425.308 423.949 426.683L424.293 427.476C426.341 432.261 420.617 438.263 417.988 441.75C409.283 453.298 366.31 498.548 357.737 494.742C354.376 493.251 351.301 490.808 348.397 488.571L335.972 478.351C314.099 459.104 295.992 436.606 283.875 409.965C279.682 400.745 276.387 391.272 272.759 381.836C265.85 380.829 258.591 382.41 251.563 381.435L251.125 381.372C246.411 380.766 243.622 374.815 242.837 370.722C245.284 357.392 255.269 360.943 266.163 359.497C261.882 337.57 256.714 315.716 256.396 293.265C256.286 285.497 254.958 281.23 261.845 275.972C264.527 275.101 284.074 277.637 289.5 277.493C302.236 277.154 300.449 271.331 299.927 260.899C299.798 258.938 299.462 256.363 300.021 254.492L300.127 254.187C300.689 252.771 301.928 251.58 302.932 250.465L307.077 245.635C312.102 239.164 316.376 231.733 319.579 224.206C321.119 220.586 322.245 215.877 324.529 212.692C326.353 210.148 329.866 209.321 332.444 207.743C341.411 202.252 346.273 183.975 348.627 174.295C349.492 170.739 355.952 144.924 344.656 149.702C339.804 151.754 335.052 153.244 331.922 147.696C329.214 142.897 333.346 136.305 335.251 131.824C343.701 111.947 343.287 83.5558 332.81 64.8594C315.848 34.5906 280.942 25.8597 248.82 25.8086C241.407 25.7968 239.181 25.276 235.504 18.0756Z"/>
	<path fill="#9658F4" d="M476.045 311.663C476.307 313.185 476.032 315.292 476.437 316.688L476.125 319.795C475.171 319.449 474.822 318.482 473.807 318.089C474.594 316.276 474.738 312.958 476.045 311.663Z"/>
	<path fill="#FF84C2" d="M421.535 422.869C411.322 416.42 409.695 419.126 403.429 427.215L395.482 437.25C386.517 448.117 371.774 463.361 360.148 471.939L355.38 468.226C340.811 455.829 325.044 439.323 314.635 423.5C291.854 388.87 281.289 341.438 277.908 300.255C299.86 299.93 322.764 288.723 340.77 277.084L354.088 268.037C354.805 267.541 356.594 265.561 357.363 266.089C361.07 268.633 365.083 270.738 369.01 272.917L391.493 284.435C410.593 293.524 431.137 301.533 452.426 302.706C450.362 310.347 449.25 318.318 447.401 326.031C443.853 340.83 439.34 355.407 434.165 369.719L426.833 388.264C423.478 396.384 419.772 400.729 430.069 406.021C428.12 412.114 423.946 417.061 421.535 422.869Z"/>
	<path fill="white" d="M390.468 313.823C402.762 312.728 407.811 326.594 400.26 336.618C397.4 340.413 393.599 343.785 390.448 347.393L355.212 387.318C351.134 391.692 344.977 398.883 338.192 396.917L337.75 396.783C331.747 395.024 327.253 390.2 323.237 385.669C319.108 381.146 309.867 372.85 309.513 366.271C309.171 359.899 315.189 351.429 321.992 351.232C329.067 351.027 335.897 358.136 340.619 362.687L367.248 333.705C373.917 326.487 380.296 316.209 390.468 313.823Z"/>
	<path fill="#CB83FF" d="M356.448 79.82L460.532 80.1283C465.749 80.128 471.164 79.8491 476.33 80.635C477.431 83.8694 476.937 88.4455 476.947 91.8852L476.881 268.875C476.759 273.031 476.366 277.671 475.617 281.744C475.319 281.724 471.203 278.071 469.811 277.585C466.357 276.38 462.436 279.512 459.375 280.922C447.336 286.468 403.581 267.154 392.879 261.735L372.318 250.793C358.141 243.154 357.923 240.871 343.487 250.552L328.201 260.688C325.286 262.575 322.382 264.654 319.232 266.119C318.583 259.679 320.865 255.298 323.851 249.862L332.761 231.679C334.987 226.173 335.952 226.51 340.628 223.011C357.347 210.499 367.439 177.202 367.85 157.517C368.126 144.271 364.893 138.571 353.518 130.738C357.025 113.649 358.257 97.1178 356.448 79.82Z"/>
	<path fill="#CB83FF" d="M58.141 358.589L57.8992 358.713C54.6344 359.862 36.4678 359.797 35.2041 359.148L35.6325 80.1885C38.3937 79.6624 41.9828 80.0961 44.821 80.1022L151.822 80.6036C150.394 92.8061 150.236 104.074 152.172 116.125L153.741 124.824C154.04 126.218 154.625 127.657 154.761 129.067C141.258 135.747 138.204 143.108 138.629 157.363C139.22 177.212 145.72 206.276 159.547 220.288C168.887 229.753 167.03 232.989 171.932 244.026L174.715 249.804C175.632 251.673 175.494 251.824 174.835 253.789L171.603 262.126C170.118 265.676 169.345 267.13 165.846 268.818C156.498 273.33 146.237 276.494 136.25 279.263L126.479 281.766C121.637 282.979 113.769 286.763 115.678 292.995C109.739 294.733 104.292 301.675 95.8263 303.179C94.1503 302.081 91.9992 302.047 90.0689 302.423L89.8013 302.478C85.8137 303.36 83.9157 305.711 81.6758 308.84C76.6919 315.802 73.0512 304.233 66.44 325.597L59.1584 354.829C58.965 355.64 58.6449 357.997 58.141 358.589Z"/>
	<path fill="#FFE801" d="M151.822 80.6249L155.877 65.1776C162.795 45.551 179.31 29.0241 197.947 20.1864C202.178 18.1804 209.741 14.7955 214.398 16.605L216.112 17.375C218.956 18.931 220.499 21.4784 221.381 24.5089C223.2 24.573 226.877 21.7245 228.598 20.9175L235.504 18.0756C239.181 25.276 241.407 25.7968 248.82 25.8086C280.942 25.8597 315.848 34.5906 332.81 64.8594C343.287 83.5558 343.701 111.947 335.251 131.824C333.346 136.305 329.214 142.897 331.922 147.696C335.052 153.244 339.804 151.754 344.656 149.702C355.952 144.924 349.492 170.739 348.627 174.295C346.273 183.975 341.411 202.252 332.444 207.743C329.866 209.321 326.353 210.148 324.529 212.692C322.245 215.877 321.119 220.586 319.579 224.206C316.376 231.733 312.102 239.164 307.077 245.635L302.932 250.465C301.928 251.58 300.689 252.771 300.127 254.187L300.021 254.492C299.462 256.363 299.798 258.938 299.844 260.899C300.449 271.331 302.236 277.154 289.5 277.493C284.074 277.637 264.527 275.101 261.845 275.972C254.958 281.23 256.286 285.497 256.396 293.265C256.714 315.716 261.882 337.57 266.163 359.497C255.269 360.943 245.284 357.392 242.837 370.722C239.009 373.127 234.406 374.341 229.919 373.462C229.475 373.375 229.656 373.357 229.31 373.468C229.315 375.543 228.908 378.01 228.141 379.946L228.017 380.25C227.507 381.524 226.577 382.564 225.349 383.197L225.078 383.332C222.207 384.809 218.605 385.4 215.5 386.248L202.75 389.999C168.071 401.257 135.435 419.594 106.07 441.072L73.6061 464.665C71.0963 466.488 68.5585 468.432 65.8258 469.913L65.5452 470.063C57.9652 474.176 47.3182 466.671 48.3509 458.217C48.7682 454.801 49.997 451.401 51.0027 448.127L66.755 394.158L63.5 393.741C51.025 391.072 53.4503 381.693 55.2465 372.5L58.141 358.589C58.6449 357.997 58.965 355.64 59.1584 354.829L66.44 325.597C73.0512 304.233 76.6919 315.802 81.6758 308.84C83.9157 305.711 85.8137 303.36 89.8013 302.478L90.0689 302.423C91.9992 302.047 94.1503 302.081 95.8263 303.179C104.292 301.675 109.739 294.733 115.678 292.995C113.769 286.763 121.637 282.979 126.479 281.766L136.25 279.263C146.237 276.494 156.498 273.33 165.846 268.818C169.345 267.13 170.118 265.676 171.603 262.126L174.835 253.789C175.494 251.824 175.632 251.673 174.715 249.804L171.932 244.026C167.03 232.989 168.887 229.753 159.547 220.288C145.72 206.276 139.22 177.212 138.629 157.363C138.204 143.108 141.258 135.747 154.761 129.067C154.625 127.657 154.04 126.218 153.741 124.824L152.172 116.125C150.236 104.074 150.394 92.8061 151.822 80.6249Z"/>
	<path fill="#131629" d="M151.822 80.6249L155.877 65.1776C162.795 45.551 179.31 29.0241 197.947 20.1864C202.178 18.1804 209.741 14.7955 214.398 16.605L216.112 17.375C218.956 18.931 220.499 21.4784 221.381 24.5089C221.339 26.6583 221.367 28.7761 220.805 30.8678C215.829 34.1618 209.493 35.8405 204.163 38.6227C168.195 57.3983 161.341 92.4937 172.373 128.822C173.867 133.743 176.916 139.605 176.8 144.806C176.723 148.273 172.136 153.198 168.375 152.187C165.148 151.319 161.358 146.644 157.937 148.419C149.895 152.593 162.568 202.881 172.125 207.941C177.206 210.63 178.553 208.829 180.229 215.119L182.175 222.5C185.164 232.806 193.151 245.579 201.006 252.84C203.329 254.988 205.978 256.466 208.388 258.44C214.3 263.283 207.777 273.394 198.589 270.149C195.079 268.909 191.99 266.357 189.133 264.051C183.06 281.512 184.257 283.133 167.226 288.666L140.655 296.343C131.153 298.807 121.775 304.048 115.678 292.995C113.769 286.763 121.637 282.979 126.479 281.766L136.25 279.263C146.237 276.494 156.498 273.33 165.846 268.818C169.345 267.13 170.118 265.676 171.603 262.126L174.835 253.789C175.494 251.824 175.632 251.673 174.715 249.804L171.932 244.026C167.03 232.989 168.887 229.753 159.547 220.288C145.72 206.276 139.22 177.212 138.629 157.363C138.204 143.108 141.258 135.747 154.761 129.067C154.625 127.657 154.04 126.218 153.741 124.824L152.172 116.125C150.236 104.074 150.394 92.8061 151.822 80.6249Z"/>
	<path fill="#131629" d="M58.141 358.589C58.6449 357.997 58.965 355.64 59.1584 354.829L66.44 325.597C73.0512 304.233 76.6919 315.802 81.6758 308.84C83.9157 305.711 85.8137 303.36 89.8013 302.478L90.0689 302.423C91.9992 302.047 94.1503 302.081 95.8263 303.179C97.6712 306.443 101.35 312.043 100.358 315.95C99.3871 319.771 90.9183 322.286 87.8863 324.563C81.0581 329.69 72.8122 371.209 73.5179 372.776L81.0292 372.061C93.7825 371.144 92.4745 379.015 89.8615 388.6L76.5634 435.04C77.4601 434.972 91.4706 424.559 93.5884 423.092L109.112 412.771C142.217 392.279 167.907 377.444 205.688 367.988L215.632 365.668C222.159 364.374 227.557 366.388 229.31 373.468C229.315 375.543 228.908 378.01 228.141 379.946L228.017 380.25C227.507 381.524 226.577 382.564 225.349 383.197L225.078 383.332C222.207 384.809 218.605 385.4 215.5 386.248L202.75 389.999C168.071 401.257 135.435 419.594 106.07 441.072L73.6061 464.665C71.0963 466.488 68.5585 468.432 65.8258 469.913L65.5452 470.063C57.9652 474.176 47.3182 466.671 48.3509 458.217C48.7682 454.801 49.997 451.401 51.0027 448.127L66.755 394.158L63.5 393.741C51.025 391.072 53.4503 381.693 55.2465 372.5L58.141 358.589Z"/>
</svg>
